<svg xmlns="http://www.w3.org/2000/svg" viewBox="0 0 935.49 935.5"><defs><style>.cls-1{fill:#fff;}</style></defs><title>Asset 3</title><g id="Layer_2" data-name="Layer 2"><g id="Layer_1-2" data-name="Layer 1"><path class="cls-1" d="M450.08,509.49V911.43A24.07,24.07,0,0,1,426,935.5H205.18a24.07,24.07,0,0,1-22.62-15.84l-17.8-48.9c-9.21-25.31-46.69-18.7-46.69,8.23v32.44A24.07,24.07,0,0,1,94,935.5H24.07A24.07,24.07,0,0,1,0,911.43V509.49a24.07,24.07,0,0,1,24.07-24.07H244.93a24.07,24.07,0,0,1,22.62,15.84l17.8,48.9c9.21,25.31,46.69,18.7,46.69-8.23V509.49a24.07,24.07,0,0,1,24.07-24.07H426A24.07,24.07,0,0,1,450.08,509.49Z"/><path class="cls-1" d="M450.08,24.07V426A24.07,24.07,0,0,1,426,450.08H356.09A24.08,24.08,0,0,1,332,426V393.57c0-26.93-37.48-33.54-46.69-8.23l-17.8,48.9a24.07,24.07,0,0,1-22.62,15.84H205.15a24.07,24.07,0,0,1-22.62-15.84l-17.8-48.9C155.52,360,118,366.64,118,393.57V426A24.07,24.07,0,0,1,94,450.08H24.07A24.07,24.07,0,0,1,0,426V24.07A24.07,24.07,0,0,1,24.07,0H426A24.07,24.07,0,0,1,450.08,24.07Z"/><path class="cls-1" d="M485.41,24.08V426a24.07,24.07,0,0,0,24.07,24.07H911.42A24.07,24.07,0,0,0,935.49,426V24.08A24.07,24.07,0,0,0,911.42,0H509.48A24.07,24.07,0,0,0,485.41,24.08ZM675,260.79l-14.68-40.33a24.09,24.09,0,0,1,14.39-30.86L715,174.92a24.08,24.08,0,0,1,30.85,14.39l14.68,40.33a24.08,24.08,0,0,1-14.38,30.86l-40.33,14.67A24.07,24.07,0,0,1,675,260.79Z"/><path class="cls-1" d="M485.41,509.49V911.43a24.07,24.07,0,0,0,24.07,24.07H911.42a24.07,24.07,0,0,0,24.07-24.07V509.49a24.07,24.07,0,0,0-24.07-24.07H509.48A24.07,24.07,0,0,0,485.41,509.49ZM675,746.2l-14.68-40.33A24.09,24.09,0,0,1,674.71,675L715,660.33a24.08,24.08,0,0,1,30.85,14.39l14.68,40.33a24.07,24.07,0,0,1-14.38,30.86l-40.33,14.68A24.09,24.09,0,0,1,675,746.2Z"/></g></g></svg>